<svg width="404" height="400" viewBox="0 0 404 400" fill="none" xmlns="http://www.w3.org/2000/svg">
<path d="M202 0.393066L193.243 27.3461L206.719 31.7249L202 0.393066Z" fill="#FFCC00"/>
<path d="M202 0.393066L210.757 27.3461L197.281 31.7249L202 0.393066Z" fill="#FFCC00"/>
<path d="M228.951 19.9758L200.613 19.9763L200.613 34.1459L228.951 19.9758Z" fill="#FFCC00"/>
<path d="M228.951 19.9756L206.025 36.6337L197.696 25.1702L228.951 19.9756Z" fill="#FFCC00"/>
<path d="M218.656 51.6609L209.9 24.708L196.424 29.0869L218.656 51.6609Z" fill="#FFCC00"/>
<path d="M218.656 51.6609L195.731 35.0031L204.059 23.5392L218.656 51.6609Z" fill="#FFCC00"/>
<path d="M175.049 19.9758L203.387 19.9763L203.387 34.1459L175.049 19.9758Z" fill="#FFCC00"/>
<path d="M175.049 19.9756L197.975 36.6337L206.303 25.1702L175.049 19.9756Z" fill="#FFCC00"/>
<path d="M185.343 51.6609L194.1 24.708L207.576 29.0869L185.343 51.6609Z" fill="#FFCC00"/>
<path d="M185.343 51.6609L208.269 35.0031L199.941 23.5392L185.343 51.6609Z" fill="#FFCC00"/>
<path d="M202 340.475L193.243 367.428L206.719 371.806L202 340.475Z" fill="#FFCC00"/>
<path d="M202 340.475L210.757 367.428L197.281 371.806L202 340.475Z" fill="#FFCC00"/>
<path d="M228.951 360.057L200.613 360.058L200.613 374.227L228.951 360.057Z" fill="#FFCC00"/>
<path d="M228.951 360.057L206.025 376.715L197.696 365.251L228.951 360.057Z" fill="#FFCC00"/>
<path d="M218.656 391.742L209.9 364.79L196.424 369.168L218.656 391.742Z" fill="#FFCC00"/>
<path d="M218.656 391.742L195.731 375.085L204.059 363.621L218.656 391.742Z" fill="#FFCC00"/>
<path d="M175.049 360.057L203.387 360.058L203.387 374.227L175.049 360.057Z" fill="#FFCC00"/>
<path d="M175.049 360.057L197.975 376.715L206.303 365.251L175.049 360.057Z" fill="#FFCC00"/>
<path d="M185.343 391.742L194.1 364.79L207.576 369.168L185.343 391.742Z" fill="#FFCC00"/>
<path d="M185.343 391.742L208.269 375.085L199.941 363.621L185.343 391.742Z" fill="#FFCC00"/>
<path d="M31.9722 170.434L23.2153 197.387L36.6908 201.766L31.9722 170.434Z" fill="#FFCC00"/>
<path d="M31.9722 170.434L40.7291 197.387L27.2536 201.766L31.9722 170.434Z" fill="#FFCC00"/>
<path d="M58.9231 190.016L30.5854 190.017L30.5851 204.186L58.9231 190.016Z" fill="#FFCC00"/>
<path d="M58.9231 190.016L35.997 206.674L27.6689 195.211L58.9231 190.016Z" fill="#FFCC00"/>
<path d="M48.6289 221.701L39.8722 194.749L26.3965 199.127L48.6289 221.701Z" fill="#FFCC00"/>
<path d="M48.6287 221.701L25.7029 205.044L34.0314 193.58L48.6287 221.701Z" fill="#FFCC00"/>
<path d="M5.02124 190.016L33.3589 190.017L33.3592 204.186L5.02124 190.016Z" fill="#FFCC00"/>
<path d="M5.02124 190.016L27.9474 206.674L36.2754 195.211L5.02124 190.016Z" fill="#FFCC00"/>
<path d="M15.3154 221.701L24.0721 194.749L37.5478 199.127L15.3154 221.701Z" fill="#FFCC00"/>
<path d="M15.3157 221.701L38.2414 205.044L29.9129 193.58L15.3157 221.701Z" fill="#FFCC00"/>
<path d="M100.33 74.4419L123.255 57.7842L114.927 46.3202L100.33 74.4419Z" fill="#FFCC00"/>
<path d="M100.33 74.4417L109.086 47.4887L122.562 51.8677L100.33 74.4417Z" fill="#FFCC00"/>
<path d="M90.0347 42.7568L112.961 59.4149L121.289 47.9512L90.0347 42.7568Z" fill="#FFCC00"/>
<path d="M90.0347 42.7568L118.372 42.7571L118.373 56.9269L90.0347 42.7568Z" fill="#FFCC00"/>
<path d="M116.985 23.1743L108.229 50.1272L121.704 54.5062L116.985 23.1743Z" fill="#FFCC00"/>
<path d="M116.985 23.1743L125.742 50.1275L112.267 54.5062L116.985 23.1743Z" fill="#FFCC00"/>
<path d="M133.643 74.4419L110.717 57.7838L119.045 46.3202L133.643 74.4419Z" fill="#FFCC00"/>
<path d="M133.643 74.4421L124.886 47.489L111.411 51.8676L133.643 74.4421Z" fill="#FFCC00"/>
<path d="M143.937 42.7568L121.011 59.4146L112.683 47.9507L143.937 42.7568Z" fill="#FFCC00"/>
<path d="M143.937 42.7571L115.599 42.7569L115.599 56.9267L143.937 42.7571Z" fill="#FFCC00"/>
<path d="M71.4082 136.681L62.6515 109.728L49.1758 114.107L71.4082 136.681Z" fill="#FFCC00"/>
<path d="M71.408 136.681L48.4822 120.023L56.8107 108.559L71.408 136.681Z" fill="#FFCC00"/>
<path d="M38.0947 136.681L61.0208 120.023L52.6926 108.559L38.0947 136.681Z" fill="#FFCC00"/>
<path d="M38.095 136.681L46.8521 109.728L60.3274 114.107L38.095 136.681Z" fill="#FFCC00"/>
<path d="M27.8008 104.996L50.7266 121.654L59.055 110.19L27.8008 104.996Z" fill="#FFCC00"/>
<path d="M27.8008 104.996L56.1386 104.996L56.1385 119.166L27.8008 104.996Z" fill="#FFCC00"/>
<path d="M81.7026 104.996L58.7766 121.654L50.4484 110.19L81.7026 104.996Z" fill="#FFCC00"/>
<path d="M81.7026 104.996L53.3648 104.996L53.3647 119.166L81.7026 104.996Z" fill="#FFCC00"/>
<path d="M54.7517 85.4136L63.5084 112.366L50.0327 116.745L54.7517 85.4136Z" fill="#FFCC00"/>
<path d="M54.7517 85.4136L45.9946 112.367L59.4699 116.745L54.7517 85.4136Z" fill="#FFCC00"/>
<path d="M81.7024 275.037L53.3648 275.037L53.3644 289.207L81.7024 275.037Z" fill="#FFCC00"/>
<path d="M81.7024 275.036L58.7762 291.695L50.4482 280.231L81.7024 275.036Z" fill="#FFCC00"/>
<path d="M71.4082 306.722L62.6518 279.769L49.1758 284.148L71.4082 306.722Z" fill="#FFCC00"/>
<path d="M71.4077 306.722L48.4822 290.064L56.8109 278.6L71.4077 306.722Z" fill="#FFCC00"/>
<path d="M38.0947 306.722L61.0209 290.064L52.6928 278.6L38.0947 306.722Z" fill="#FFCC00"/>
<path d="M38.095 306.722L46.8522 279.769L60.3274 284.148L38.095 306.722Z" fill="#FFCC00"/>
<path d="M54.752 255.454L63.5084 282.407L50.0324 286.786L54.752 255.454Z" fill="#FFCC00"/>
<path d="M54.752 255.454L45.9946 282.407L59.4696 286.786L54.752 255.454Z" fill="#FFCC00"/>
<path d="M27.8005 275.037L56.1383 275.037L56.1382 289.206L27.8005 275.037Z" fill="#FFCC00"/>
<path d="M27.8005 275.037L50.7263 291.694L59.0547 280.23L27.8005 275.037Z" fill="#FFCC00"/>
<path d="M143.937 337.276L115.599 337.276L115.599 351.446L143.937 337.276Z" fill="#FFCC00"/>
<path d="M143.937 337.275L121.011 353.934L112.683 342.47L143.937 337.275Z" fill="#FFCC00"/>
<path d="M133.643 368.961L124.887 342.008L111.411 346.387L133.643 368.961Z" fill="#FFCC00"/>
<path d="M133.643 368.961L110.717 352.303L119.046 340.839L133.643 368.961Z" fill="#FFCC00"/>
<path d="M100.329 368.961L123.255 352.303L114.927 340.839L100.329 368.961Z" fill="#FFCC00"/>
<path d="M100.33 368.961L109.087 342.008L122.562 346.387L100.33 368.961Z" fill="#FFCC00"/>
<path d="M116.987 317.693L125.743 344.646L112.267 349.025L116.987 317.693Z" fill="#FFCC00"/>
<path d="M116.987 317.693L108.229 344.646L121.704 349.025L116.987 317.693Z" fill="#FFCC00"/>
<path d="M90.0354 337.276L118.373 337.276L118.373 351.446L90.0354 337.276Z" fill="#FFCC00"/>
<path d="M90.0354 337.276L112.961 353.934L121.29 342.47L90.0354 337.276Z" fill="#FFCC00"/>
<path d="M372.027 170.434L380.784 197.387L367.309 201.766L372.027 170.434Z" fill="#FFCC00"/>
<path d="M372.027 170.434L363.27 197.387L376.746 201.766L372.027 170.434Z" fill="#FFCC00"/>
<path d="M345.077 190.016L373.414 190.017L373.415 204.186L345.077 190.016Z" fill="#FFCC00"/>
<path d="M345.077 190.016L368.003 206.674L376.331 195.211L345.077 190.016Z" fill="#FFCC00"/>
<path d="M355.371 221.702L364.128 194.749L377.604 199.128L355.371 221.702Z" fill="#FFCC00"/>
<path d="M355.371 221.702L378.297 205.044L369.968 193.58L355.371 221.702Z" fill="#FFCC00"/>
<path d="M398.979 190.016L370.641 190.017L370.641 204.186L398.979 190.016Z" fill="#FFCC00"/>
<path d="M398.979 190.016L376.052 206.674L367.724 195.211L398.979 190.016Z" fill="#FFCC00"/>
<path d="M388.684 221.702L379.927 194.749L366.452 199.128L388.684 221.702Z" fill="#FFCC00"/>
<path d="M388.684 221.702L365.758 205.044L374.087 193.58L388.684 221.702Z" fill="#FFCC00"/>
<path d="M303.67 74.4421L280.745 57.7844L289.073 46.3204L303.67 74.4421Z" fill="#FFCC00"/>
<path d="M303.67 74.4419L294.914 47.489L281.438 51.8679L303.67 74.4419Z" fill="#FFCC00"/>
<path d="M313.965 42.7568L291.039 59.4149L282.711 47.9512L313.965 42.7568Z" fill="#FFCC00"/>
<path d="M313.965 42.7568L285.628 42.7571L285.627 56.9269L313.965 42.7568Z" fill="#FFCC00"/>
<path d="M287.015 23.1743L295.771 50.1272L282.296 54.5062L287.015 23.1743Z" fill="#FFCC00"/>
<path d="M287.015 23.1743L278.258 50.1275L291.733 54.5062L287.015 23.1743Z" fill="#FFCC00"/>
<path d="M270.358 74.4421L293.284 57.7841L284.956 46.3204L270.358 74.4421Z" fill="#FFCC00"/>
<path d="M270.358 74.4424L279.115 47.4892L292.59 51.8679L270.358 74.4424Z" fill="#FFCC00"/>
<path d="M260.063 42.7571L282.989 59.4149L291.318 47.9509L260.063 42.7571Z" fill="#FFCC00"/>
<path d="M260.064 42.7573L288.402 42.7571L288.402 56.9269L260.064 42.7573Z" fill="#FFCC00"/>
<path d="M364.81 85.7722C358.243 85.7722 352.526 89.6979 349.969 95.3808C347.412 89.7035 341.696 85.7722 335.128 85.7722C326.162 85.7722 318.868 93.0716 318.868 102.038C318.868 122.258 348.037 138.907 349.282 139.605C349.496 139.723 349.727 139.785 349.964 139.785C350.2 139.785 350.437 139.723 350.645 139.605C351.884 138.907 381.065 122.258 381.065 102.038C381.07 93.0716 373.777 85.7722 364.81 85.7722Z" fill="#FFCC00"/>
<path d="M322.297 275.037L350.634 275.037L350.635 289.207L322.297 275.037Z" fill="#FFCC00"/>
<path d="M322.297 275.036L345.223 291.695L353.551 280.231L322.297 275.036Z" fill="#FFCC00"/>
<path d="M332.591 306.722L341.348 279.769L354.824 284.148L332.591 306.722Z" fill="#FFCC00"/>
<path d="M332.592 306.722L355.517 290.064L347.189 278.6L332.592 306.722Z" fill="#FFCC00"/>
<path d="M365.905 306.722L342.979 290.064L351.307 278.6L365.905 306.722Z" fill="#FFCC00"/>
<path d="M365.905 306.722L357.148 279.769L343.672 284.148L365.905 306.722Z" fill="#FFCC00"/>
<path d="M349.248 255.454L340.491 282.407L353.967 286.786L349.248 255.454Z" fill="#FFCC00"/>
<path d="M349.248 255.454L358.005 282.407L344.53 286.786L349.248 255.454Z" fill="#FFCC00"/>
<path d="M376.199 275.037L347.861 275.037L347.861 289.206L376.199 275.037Z" fill="#FFCC00"/>
<path d="M376.199 275.037L353.273 291.694L344.945 280.23L376.199 275.037Z" fill="#FFCC00"/>
<path d="M260.063 337.276L288.401 337.277L288.401 351.446L260.063 337.276Z" fill="#FFCC00"/>
<path d="M260.063 337.276L282.989 353.934L291.317 342.47L260.063 337.276Z" fill="#FFCC00"/>
<path d="M270.357 368.961L279.113 342.008L292.589 346.387L270.357 368.961Z" fill="#FFCC00"/>
<path d="M270.357 368.961L293.283 352.303L284.954 340.839L270.357 368.961Z" fill="#FFCC00"/>
<path d="M303.671 368.961L280.745 352.303L289.073 340.839L303.671 368.961Z" fill="#FFCC00"/>
<path d="M303.67 368.961L294.913 342.008L281.438 346.387L303.67 368.961Z" fill="#FFCC00"/>
<path d="M287.013 317.693L278.257 344.646L291.733 349.025L287.013 317.693Z" fill="#FFCC00"/>
<path d="M287.013 317.693L295.771 344.646L282.296 349.025L287.013 317.693Z" fill="#FFCC00"/>
<path d="M313.964 337.276L285.627 337.276L285.627 351.446L313.964 337.276Z" fill="#FFCC00"/>
<path d="M313.965 337.276L291.039 353.934L282.711 342.47L313.965 337.276Z" fill="#FFCC00"/>
<path d="M187.415 127.21H158.271V156.353H187.415V127.21Z" fill="white"/>
<path d="M245.702 127.21H216.559V156.353H245.702V127.21Z" fill="white"/>
<path d="M245.702 156.353V185.497H216.559H187.415H158.272V156.353H129.128V185.497V214.64V243.784V272.928H158.272H187.415H216.559H245.702H274.846V243.784V214.64V185.497V156.353H245.702ZM187.415 243.784V214.64H216.559V243.784H187.415Z" fill="white"/>
</svg>
