<svg width="512" height="512" viewBox="0 0 512 512" fill="none" xmlns="http://www.w3.org/2000/svg">
<rect width="512" height="512" fill="url(#paint0_linear_1_227)"/>
<path d="M256 56.3931L247.243 83.3461L260.719 87.7249L256 56.3931Z" fill="#FFCC00"/>
<path d="M256 56.3931L264.757 83.3461L251.281 87.7249L256 56.3931Z" fill="#FFCC00"/>
<path d="M282.951 75.9758L254.613 75.9763L254.613 90.1459L282.951 75.9758Z" fill="#FFCC00"/>
<path d="M282.951 75.9756L260.025 92.6337L251.696 81.1702L282.951 75.9756Z" fill="#FFCC00"/>
<path d="M272.656 107.661L263.9 80.708L250.424 85.0869L272.656 107.661Z" fill="#FFCC00"/>
<path d="M272.656 107.661L249.731 91.0031L258.059 79.5392L272.656 107.661Z" fill="#FFCC00"/>
<path d="M229.049 75.9758L257.387 75.9763L257.387 90.1459L229.049 75.9758Z" fill="#FFCC00"/>
<path d="M229.049 75.9756L251.975 92.6337L260.303 81.1702L229.049 75.9756Z" fill="#FFCC00"/>
<path d="M239.343 107.661L248.1 80.708L261.576 85.0869L239.343 107.661Z" fill="#FFCC00"/>
<path d="M239.343 107.661L262.269 91.0031L253.941 79.5392L239.343 107.661Z" fill="#FFCC00"/>
<path d="M256 396.475L247.243 423.428L260.719 427.806L256 396.475Z" fill="#FFCC00"/>
<path d="M256 396.475L264.757 423.428L251.281 427.806L256 396.475Z" fill="#FFCC00"/>
<path d="M282.951 416.057L254.613 416.058L254.613 430.227L282.951 416.057Z" fill="#FFCC00"/>
<path d="M282.951 416.057L260.025 432.715L251.696 421.251L282.951 416.057Z" fill="#FFCC00"/>
<path d="M272.656 447.742L263.9 420.79L250.424 425.168L272.656 447.742Z" fill="#FFCC00"/>
<path d="M272.656 447.742L249.731 431.085L258.059 419.621L272.656 447.742Z" fill="#FFCC00"/>
<path d="M229.049 416.057L257.387 416.058L257.387 430.227L229.049 416.057Z" fill="#FFCC00"/>
<path d="M229.049 416.057L251.975 432.715L260.303 421.251L229.049 416.057Z" fill="#FFCC00"/>
<path d="M239.343 447.742L248.1 420.79L261.576 425.168L239.343 447.742Z" fill="#FFCC00"/>
<path d="M239.343 447.742L262.269 431.085L253.941 419.621L239.343 447.742Z" fill="#FFCC00"/>
<path d="M85.9722 226.434L77.2153 253.387L90.6908 257.766L85.9722 226.434Z" fill="#FFCC00"/>
<path d="M85.9722 226.434L94.7291 253.387L81.2536 257.766L85.9722 226.434Z" fill="#FFCC00"/>
<path d="M112.923 246.016L84.5854 246.017L84.5851 260.186L112.923 246.016Z" fill="#FFCC00"/>
<path d="M112.923 246.016L89.997 262.674L81.6689 251.211L112.923 246.016Z" fill="#FFCC00"/>
<path d="M102.629 277.701L93.8722 250.749L80.3965 255.127L102.629 277.701Z" fill="#FFCC00"/>
<path d="M102.629 277.701L79.7029 261.044L88.0314 249.58L102.629 277.701Z" fill="#FFCC00"/>
<path d="M59.0212 246.016L87.3589 246.017L87.3592 260.186L59.0212 246.016Z" fill="#FFCC00"/>
<path d="M59.0212 246.016L81.9474 262.674L90.2754 251.211L59.0212 246.016Z" fill="#FFCC00"/>
<path d="M69.3154 277.701L78.0721 250.749L91.5478 255.127L69.3154 277.701Z" fill="#FFCC00"/>
<path d="M69.3157 277.701L92.2414 261.044L83.9129 249.58L69.3157 277.701Z" fill="#FFCC00"/>
<path d="M154.33 130.442L177.255 113.784L168.927 102.32L154.33 130.442Z" fill="#FFCC00"/>
<path d="M154.33 130.442L163.086 103.489L176.562 107.868L154.33 130.442Z" fill="#FFCC00"/>
<path d="M144.035 98.7568L166.961 115.415L175.289 103.951L144.035 98.7568Z" fill="#FFCC00"/>
<path d="M144.035 98.7568L172.372 98.7571L172.373 112.927L144.035 98.7568Z" fill="#FFCC00"/>
<path d="M170.985 79.1743L162.229 106.127L175.704 110.506L170.985 79.1743Z" fill="#FFCC00"/>
<path d="M170.985 79.1743L179.742 106.128L166.267 110.506L170.985 79.1743Z" fill="#FFCC00"/>
<path d="M187.643 130.442L164.717 113.784L173.045 102.32L187.643 130.442Z" fill="#FFCC00"/>
<path d="M187.643 130.442L178.886 103.489L165.411 107.868L187.643 130.442Z" fill="#FFCC00"/>
<path d="M197.937 98.7568L175.011 115.415L166.683 103.951L197.937 98.7568Z" fill="#FFCC00"/>
<path d="M197.937 98.7571L169.599 98.7569L169.599 112.927L197.937 98.7571Z" fill="#FFCC00"/>
<path d="M125.408 192.681L116.652 165.728L103.176 170.107L125.408 192.681Z" fill="#FFCC00"/>
<path d="M125.408 192.681L102.482 176.023L110.811 164.559L125.408 192.681Z" fill="#FFCC00"/>
<path d="M92.0947 192.681L115.021 176.023L106.693 164.559L92.0947 192.681Z" fill="#FFCC00"/>
<path d="M92.095 192.681L100.852 165.728L114.327 170.107L92.095 192.681Z" fill="#FFCC00"/>
<path d="M81.8008 160.996L104.727 177.654L113.055 166.19L81.8008 160.996Z" fill="#FFCC00"/>
<path d="M81.8008 160.996L110.139 160.996L110.139 175.166L81.8008 160.996Z" fill="#FFCC00"/>
<path d="M135.703 160.996L112.777 177.654L104.448 166.19L135.703 160.996Z" fill="#FFCC00"/>
<path d="M135.703 160.996L107.365 160.996L107.365 175.166L135.703 160.996Z" fill="#FFCC00"/>
<path d="M108.752 141.414L117.508 168.366L104.033 172.745L108.752 141.414Z" fill="#FFCC00"/>
<path d="M108.752 141.414L99.9946 168.367L113.47 172.745L108.752 141.414Z" fill="#FFCC00"/>
<path d="M135.702 331.037L107.365 331.037L107.364 345.207L135.702 331.037Z" fill="#FFCC00"/>
<path d="M135.702 331.036L112.776 347.695L104.448 336.231L135.702 331.036Z" fill="#FFCC00"/>
<path d="M125.408 362.722L116.652 335.769L103.176 340.148L125.408 362.722Z" fill="#FFCC00"/>
<path d="M125.408 362.722L102.482 346.064L110.811 334.6L125.408 362.722Z" fill="#FFCC00"/>
<path d="M92.0947 362.722L115.021 346.064L106.693 334.6L92.0947 362.722Z" fill="#FFCC00"/>
<path d="M92.095 362.722L100.852 335.769L114.327 340.148L92.095 362.722Z" fill="#FFCC00"/>
<path d="M108.752 311.454L117.508 338.407L104.032 342.786L108.752 311.454Z" fill="#FFCC00"/>
<path d="M108.752 311.454L99.9946 338.407L113.47 342.786L108.752 311.454Z" fill="#FFCC00"/>
<path d="M81.8005 331.037L110.138 331.037L110.138 345.206L81.8005 331.037Z" fill="#FFCC00"/>
<path d="M81.8005 331.037L104.726 347.694L113.055 336.23L81.8005 331.037Z" fill="#FFCC00"/>
<path d="M197.937 393.276L169.599 393.276L169.599 407.446L197.937 393.276Z" fill="#FFCC00"/>
<path d="M197.937 393.275L175.011 409.934L166.683 398.47L197.937 393.275Z" fill="#FFCC00"/>
<path d="M187.643 424.961L178.887 398.008L165.411 402.387L187.643 424.961Z" fill="#FFCC00"/>
<path d="M187.643 424.961L164.717 408.303L173.046 396.839L187.643 424.961Z" fill="#FFCC00"/>
<path d="M154.329 424.961L177.255 408.303L168.927 396.839L154.329 424.961Z" fill="#FFCC00"/>
<path d="M154.33 424.961L163.087 398.008L176.562 402.387L154.33 424.961Z" fill="#FFCC00"/>
<path d="M170.987 373.693L179.743 400.646L166.267 405.025L170.987 373.693Z" fill="#FFCC00"/>
<path d="M170.987 373.693L162.229 400.646L175.704 405.025L170.987 373.693Z" fill="#FFCC00"/>
<path d="M144.035 393.276L172.373 393.276L172.373 407.446L144.035 393.276Z" fill="#FFCC00"/>
<path d="M144.035 393.276L166.961 409.934L175.29 398.47L144.035 393.276Z" fill="#FFCC00"/>
<path d="M426.027 226.434L434.784 253.387L421.309 257.766L426.027 226.434Z" fill="#FFCC00"/>
<path d="M426.027 226.434L417.27 253.387L430.746 257.766L426.027 226.434Z" fill="#FFCC00"/>
<path d="M399.077 246.016L427.414 246.017L427.415 260.186L399.077 246.016Z" fill="#FFCC00"/>
<path d="M399.077 246.016L422.003 262.674L430.331 251.211L399.077 246.016Z" fill="#FFCC00"/>
<path d="M409.371 277.702L418.128 250.749L431.604 255.128L409.371 277.702Z" fill="#FFCC00"/>
<path d="M409.371 277.702L432.297 261.044L423.968 249.58L409.371 277.702Z" fill="#FFCC00"/>
<path d="M452.979 246.016L424.641 246.017L424.641 260.186L452.979 246.016Z" fill="#FFCC00"/>
<path d="M452.979 246.016L430.052 262.674L421.724 251.211L452.979 246.016Z" fill="#FFCC00"/>
<path d="M442.684 277.702L433.927 250.749L420.452 255.128L442.684 277.702Z" fill="#FFCC00"/>
<path d="M442.684 277.702L419.758 261.044L428.087 249.58L442.684 277.702Z" fill="#FFCC00"/>
<path d="M357.67 130.442L334.745 113.784L343.073 102.32L357.67 130.442Z" fill="#FFCC00"/>
<path d="M357.67 130.442L348.914 103.489L335.438 107.868L357.67 130.442Z" fill="#FFCC00"/>
<path d="M367.965 98.7568L345.039 115.415L336.711 103.951L367.965 98.7568Z" fill="#FFCC00"/>
<path d="M367.965 98.7568L339.628 98.7571L339.627 112.927L367.965 98.7568Z" fill="#FFCC00"/>
<path d="M341.015 79.1743L349.771 106.127L336.296 110.506L341.015 79.1743Z" fill="#FFCC00"/>
<path d="M341.015 79.1743L332.258 106.128L345.733 110.506L341.015 79.1743Z" fill="#FFCC00"/>
<path d="M324.358 130.442L347.284 113.784L338.956 102.32L324.358 130.442Z" fill="#FFCC00"/>
<path d="M324.358 130.442L333.115 103.489L346.59 107.868L324.358 130.442Z" fill="#FFCC00"/>
<path d="M314.063 98.7571L336.989 115.415L345.318 103.951L314.063 98.7571Z" fill="#FFCC00"/>
<path d="M314.064 98.7573L342.402 98.7571L342.402 112.927L314.064 98.7573Z" fill="#FFCC00"/>
<path d="M418.81 141.772C412.243 141.772 406.526 145.698 403.969 151.381C401.412 145.704 395.696 141.772 389.128 141.772C380.162 141.772 372.868 149.072 372.868 158.038C372.868 178.258 402.037 194.907 403.282 195.605C403.496 195.723 403.727 195.785 403.964 195.785C404.2 195.785 404.437 195.723 404.645 195.605C405.884 194.907 435.065 178.258 435.065 158.038C435.07 149.072 427.777 141.772 418.81 141.772Z" fill="#FFCC00"/>
<path d="M376.297 331.037L404.634 331.037L404.635 345.207L376.297 331.037Z" fill="#FFCC00"/>
<path d="M376.297 331.036L399.223 347.695L407.551 336.231L376.297 331.036Z" fill="#FFCC00"/>
<path d="M386.591 362.722L395.348 335.769L408.824 340.148L386.591 362.722Z" fill="#FFCC00"/>
<path d="M386.592 362.722L409.517 346.064L401.189 334.6L386.592 362.722Z" fill="#FFCC00"/>
<path d="M419.905 362.722L396.979 346.064L405.307 334.6L419.905 362.722Z" fill="#FFCC00"/>
<path d="M419.905 362.722L411.148 335.769L397.672 340.148L419.905 362.722Z" fill="#FFCC00"/>
<path d="M403.248 311.454L394.491 338.407L407.967 342.786L403.248 311.454Z" fill="#FFCC00"/>
<path d="M403.248 311.454L412.005 338.407L398.53 342.786L403.248 311.454Z" fill="#FFCC00"/>
<path d="M430.199 331.037L401.861 331.037L401.861 345.206L430.199 331.037Z" fill="#FFCC00"/>
<path d="M430.199 331.037L407.273 347.694L398.945 336.23L430.199 331.037Z" fill="#FFCC00"/>
<path d="M314.063 393.276L342.401 393.277L342.401 407.446L314.063 393.276Z" fill="#FFCC00"/>
<path d="M314.063 393.276L336.989 409.934L345.317 398.47L314.063 393.276Z" fill="#FFCC00"/>
<path d="M324.357 424.961L333.113 398.008L346.589 402.387L324.357 424.961Z" fill="#FFCC00"/>
<path d="M324.357 424.961L347.283 408.303L338.954 396.839L324.357 424.961Z" fill="#FFCC00"/>
<path d="M357.671 424.961L334.745 408.303L343.073 396.839L357.671 424.961Z" fill="#FFCC00"/>
<path d="M357.67 424.961L348.913 398.008L335.438 402.387L357.67 424.961Z" fill="#FFCC00"/>
<path d="M341.013 373.693L332.257 400.646L345.733 405.025L341.013 373.693Z" fill="#FFCC00"/>
<path d="M341.013 373.693L349.771 400.646L336.296 405.025L341.013 373.693Z" fill="#FFCC00"/>
<path d="M367.964 393.276L339.627 393.276L339.627 407.446L367.964 393.276Z" fill="#FFCC00"/>
<path d="M367.965 393.276L345.039 409.934L336.711 398.47L367.965 393.276Z" fill="#FFCC00"/>
<path d="M241.415 183.21H212.271V212.353H241.415V183.21Z" fill="white"/>
<path d="M299.702 183.21H270.559V212.353H299.702V183.21Z" fill="white"/>
<path d="M299.702 212.353V241.497H270.559H241.415H212.272V212.353H183.128V241.497V270.64V299.784V328.928H212.272H241.415H270.559H299.702H328.846V299.784V270.64V241.497V212.353H299.702ZM241.415 299.784V270.64H270.559V299.784H241.415Z" fill="white"/>
<defs>
<linearGradient id="paint0_linear_1_227" x1="256" y1="-7.79878e-10" x2="255.987" y2="500.402" gradientUnits="userSpaceOnUse">
<stop stop-color="#003399"/>
<stop offset="1" stop-color="#502379"/>
</linearGradient>
</defs>
</svg>
