<svg width="360" height="130" xmlns="http://www.w3.org/2000/svg" xmlns:xlink="http://www.w3.org/1999/xlink" viewBox="0 0 360 130">
  <!-- https://codepen.io/enbee81/pen/qyJEPY -->
  <title>
    Volt
  </title>
  <style>
    @keyframes flicker {
      0%    { opacity: 1; }
      3%    { opacity: 0.4; }
      6%    { opacity: 1; }
      7%    { opacity: 0.4; }
      8%    { opacity: 1; }
      9%    { opacity: 0.4; }
      10%   { opacity: 1; }
      50%   { opacity: 0.4; }
      53%   { opacity: 0; }
      56%   { opacity: 0.4; }
      59%   { opacity: 0; }
      89%   { opacity: 0; }
      90%   { opacity: 0.4; }
      100%  { opacity: 0; }
    }
    @keyframes glow-flicker {
      0%    { opacity: 1; }
      3%    { opacity: 0; }
      6%    { opacity: 1; }
      7%    { opacity: 0; }
      8%    { opacity: 1; }
      9%    { opacity: 0; }
      10%   { opacity: 1; }
      89%   { opacity: 0; }
      90%   { opacity: 0; }
      100%  { opacity: 0; }
    }
     @keyframes eflicker {
      0%    { opacity: 1; }
      3%    { opacity: 0.4; }
      6%    { opacity: 1; }
      7%    { opacity: 0.4; }
      8%    { opacity: 1; }
      9%    { opacity: 0.4; }
      10%   { opacity: 1; }
      89%   { opacity: 1; }
      90%   { opacity: 0.4; }
      100%  { opacity: 0.4; }
    }
    @keyframes eglow-flicker {
      0%    { opacity: 1; }
      3%    { opacity: 0; }
      6%    { opacity: 1; }
      7%    { opacity: 0; }
      8%    { opacity: 1; }
      9%    { opacity: 0; }
      10%   { opacity: 1; }
      89%   { opacity: 0; }
      90%   { opacity: 1; }
      100%  { opacity: 1; }
    }

    #l  { animation: flicker 6s infinite step-end; }
    #l-glow { animation: glow-flicker 6s infinite step-end;}
    #e { animation: eflicker 5s infinite 3s step-end; }
    #e-glow { animation: eglow-flicker 5s infinite 3s step-end; }
  </style>
  <defs>
    <filter id="glow" width="200%" height="200%" x="-50%" y="-50%" filterUnits="objectBoundingBox">
      <feOffset in="SourceAlpha" result="shadowOffsetOuter1"/>
      <feGaussianBlur in="shadowOffsetOuter1" result="shadowBlurOuter1" stdDeviation="5"/>
      <feColorMatrix in="shadowBlurOuter1" result="shadowMatrixOuter1" values="0 0 0 0 1 0 0 0 0 1 0 0 0 0 1 0 0 0 1 0"/>
      <feOffset dy="1" in="SourceAlpha" result="shadowOffsetOuter2"/>
      <feGaussianBlur in="shadowOffsetOuter2" result="shadowBlurOuter2" stdDeviation="7"/>
      <feColorMatrix in="shadowBlurOuter2" result="shadowMatrixOuter2" values="0 0 0 0 1 0 0 0 0 1 0 0 0 0 1 0 0 0 0.9 0"/>
      <feOffset dy="2" in="SourceAlpha" result="shadowOffsetOuter3"/>
      <feGaussianBlur in="shadowOffsetOuter3" result="shadowBlurOuter3" stdDeviation="10"/>
      <feColorMatrix in="shadowBlurOuter3" result="shadowMatrixOuter3" values="0 0 0 0 1 0 0 0 0 1 0 0 0 0 1 0 0 0 0.8 0"/>
      <feOffset dx="2" dy="2" in="SourceAlpha" result="shadowOffsetOuter4"/>
      <feGaussianBlur in="shadowOffsetOuter4" result="shadowBlurOuter4" stdDeviation="1"/>
      <feColorMatrix in="shadowBlurOuter4" result="shadowMatrixOuter4" values="0 0 0 0 0 0 0 0 0 0 0 0 0 0 0 0 0 0 0.69678442 0"/>
      <feOffset dy="2" in="SourceAlpha" result="shadowOffsetOuter5"/>
      <feGaussianBlur in="shadowOffsetOuter5" result="shadowBlurOuter5" stdDeviation="8"/>
      <feColorMatrix in="shadowBlurOuter5" result="shadowMatrixOuter5" values="0 0 0 0 0.314369351 0 0 0 0 0.8883757 0 0 0 0 0.759899616 0 0 0 0.649371603 0"/>
      <feMerge>
        <feMergeNode in="shadowMatrixOuter1"/>
        <feMergeNode in="shadowMatrixOuter2"/>
        <feMergeNode in="shadowMatrixOuter3"/>
        <feMergeNode in="shadowMatrixOuter4"/>
        <feMergeNode in="shadowMatrixOuter5"/>
      </feMerge>
    </filter>
    <path id="path_e" d="m274.07001,80.24c0,-6.5333 0.98,-12.2267 2.94,-17.08c2.053,-4.9467 4.713,-9.0533 7.98,-12.32c3.267,-3.2667 7,-5.74 11.2,-7.42c4.293,-1.68 8.68,-2.52 13.16,-2.52c10.453,0 18.713,3.22 24.78,9.66c6.067,6.3467 9.1,15.7267 9.1,28.14c0,1.2133 -0.047,2.5667 -0.14,4.06c-0.093,1.4 -0.187,2.66 -0.28,3.78l-47.32,0c0.467,4.2933 2.473,7.7 6.02,10.22c3.547,2.52 8.307,3.78 14.28,3.78c3.827,0 7.56,-0.3267 11.2,-0.98c3.733,-0.7467 6.767,-1.6333 9.1,-2.66l2.8,16.94c-1.12,0.56 -2.613,1.12 -4.48,1.68c-1.867,0.56 -3.967,1.027 -6.3,1.4c-2.24,0.467 -4.667,0.84 -7.28,1.12c-2.613,0.28 -5.227,0.42 -7.84,0.42c-6.627,0 -12.413,-0.98 -17.36,-2.94c-4.853,-1.96 -8.913,-4.62 -12.18,-7.98c-3.173,-3.4533 -5.553,-7.5133 -7.14,-12.18c-1.493,-4.6667 -2.24,-9.7067 -2.24,-15.12zm49,-7.98c-0.093,-1.7733 -0.42,-3.5 -0.98,-5.18c-0.467,-1.68 -1.26,-3.1733 -2.38,-4.48c-1.027,-1.3067 -2.38,-2.38 -4.06,-3.22c-1.587,-0.84 -3.593,-1.26 -6.02,-1.26c-2.333,0 -4.34,0.42 -6.02,1.26c-1.68,0.7467 -3.08,1.7733 -4.2,3.08c-1.12,1.3067 -2.007,2.8467 -2.66,4.62c-0.56,1.68 -0.98,3.4067 -1.26,5.18l27.58,0z"/>
    <path id="path_t" d="m243.48201,83.5397l0,-27.9986l20.746,0l0,-18.7666l-20.746,0l0,-25.27451l-22.565,3.57165l0,68.77076c0,5.1457 0.478,9.8373 1.439,14.0749c0.958,4.2377 2.65,7.8463 5.073,10.8211c2.423,2.9776 5.653,5.2966 9.692,6.9616c4.037,1.665 9.136,2.497 15.296,2.497c4.846,0 8.935,-0.404 12.266,-1.21c3.332,-0.807 6.361,-1.764 9.087,-2.876l-3.18,-17.5558c-2.121,0.8088 -4.468,1.4378 -7.042,1.8919c-2.575,0.454 -5.074,0.681 -7.497,0.681c-5.049,0 -8.405,-1.4118 -10.071,-4.2376c-1.665,-2.8235 -2.498,-6.6071 -2.498,-11.3508z"/>
    <path id="path_v" d="m81.27501,116.381c4.16,-8.7704 8.2607,-17.8983 12.2976,-27.3833c4.0369,-9.485 7.8703,-18.8683 11.5049,-28.1523c3.6347,-9.2816 6.9806,-18.1541 10.0402,-26.6175c3.0593,-8.461 5.7643,-16.03763 8.1163,-22.72752l-25.1512,0c-1.9735,6.10579 -4.1623,12.65852 -6.5665,19.65812c-2.4041,7.002 -4.8509,13.9803 -7.3449,20.9327c-2.4941,6.9547 -4.9124,13.6161 -7.2503,19.9844c-2.3379,6.3706 -4.4936,11.8569 -6.4647,16.4586c-2.0918,-4.6325 -4.2806,-10.1329 -6.5665,-16.5035c-2.2858,-6.3706 -4.6758,-13.0321 -7.1699,-19.9868c-2.494,-6.9524 -4.9455,-13.9307 -7.3496,-20.9327c-2.4042,-6.9997 -4.5883,-13.53819 -6.5523,-19.61082l-26.04812,0c2.22906,6.65674 4.8793,14.22392 7.94601,22.70392c3.06671,8.4799 6.42681,17.3572 10.08511,26.6293c3.6559,9.2746 7.5154,18.6484 11.5806,28.1215c4.063,9.4756 8.1827,18.6177 12.3615,27.4259l22.5318,0z"/>
    <path id="path_l" d="m213.46601,11.50006l-22.565,3.57155l0,101.30939l22.565,0l0,-104.88094l0,0z"/>
    <path id="path_o" d="m164.12101,77.6362c0,11.1725 -9.063,20.2296 -20.243,20.2296c-11.18,0 -20.243,-9.0571 -20.243,-20.2296c0,-11.1725 9.063,-20.2296 20.243,-20.2296c11.18,0 20.243,9.0571 20.243,20.2296zm20.474,0c0,-22.5683 -18.307,-40.8639 -40.89,-40.8639c-9.31,0 -17.893,3.1099 -24.766,8.3461c-1.914,5.1051 -3.9228,10.3467 -6.0295,15.7268c-3.0411,7.768 -6.2219,15.6057 -9.544,23.514c3.2083,19.3698 20.0475,34.1408 40.3395,34.1408c22.583,0 40.89,-18.2955 40.89,-40.8638"/>

  </defs>
  <g id="schedule-location" fill="none" fill-rule="evenodd">
    <g id="V">
      <use fill="#000" filter="url(#glow)" xlink:href="#path_v"/>
      <use fill="#FFF" xlink:href="#path_v"/>
    </g>
    <g id="l">
      <use id="l-glow" fill="#000" filter="url(#glow)" xlink:href="#path_l"/>
      <use fill="#FFF" xlink:href="#path_l"/>
    </g>
    <g id="o">
      <use fill="#000" filter="url(#glow)" xlink:href="#path_o"/>
      <use fill="#FFF" xlink:href="#path_o"/>
    </g>
    <g id="t">
      <use fill="#000" filter="url(#glow)" xlink:href="#path_t"/>
      <use fill="#FFF" xlink:href="#path_t"/>
    </g>
    <g id="e">
      <use id="e-glow" fill="#000" filter="url(#glow)" xlink:href="#path_e"/>
      <use fill="#FFF" xlink:href="#path_e"/>
    </g>
  </g>
</svg>
